<svg xmlns="http://www.w3.org/2000/svg"  viewBox="0 0 100 100" width="200px" height="200px"><path fill="#ef5390" d="M67 66c0 6 3.198 12.355 4 14h3c0 0-1-9-1-14M34 68c2.482 7.174 3.869 9.617 6 12h4c-.603-2.883-1-9-1-11"/><path fill="#f37e98" d="M88,53c1,0,1,0,1,0s-1.25,6.1-1.71,7.12c-1.28,2.76-13.46,5.94-24.27,5.94C62.98,66.06,62,69.04,62,73c0,3.64,1,7,1,7h-4c-1.27-2.08-4.55-7.19-6-12c0,0-16.95,3.67-25-3c-1.26,2.42-3.84,9.32-4,15h-4c-5.65-10.68-7-26.75-7-35.31C13,27.11,30.34,20,46,20c11.89,0,26.52,7.1,29.96,14.4l-0.15,0.22c0.91-0.54,2-0.98,3.29-1.24C86.22,31.95,88,28,88,28s1,2,1,5c0,7-10,10-10,10C84.11,45.38,80,53,88,53z"/><path fill="#1f212b" d="M76 49A2 2 0 1 0 76 53 2 2 0 1 0 76 49zM56.646 24.709c-.335-.103-.673-.202-1.012-.296-.268-.075-.542.082-.616.347-.074.266.081.542.347.616.331.093.661.189.988.29.049.015.098.022.146.022.214 0 .412-.138.478-.354C57.059 25.07 56.91 24.791 56.646 24.709zM53.61 23.9c-.673-.152-1.35-.287-2.025-.403-.275-.045-.531.135-.578.408-.046.272.137.53.408.577.659.113 1.319.245 1.975.393.037.008.074.012.11.012.229 0 .436-.157.487-.39C54.049 24.229 53.88 23.961 53.61 23.9zM49.557 23.208C48.346 23.07 47.149 23 46 23c-11.143 0-30 4.568-30 21.69 0 2.494.109 5.135.325 7.85.021.262.239.46.497.46.014 0 .027 0 .041-.001.274-.022.48-.263.458-.538C17.108 49.771 17 47.157 17 44.69 17 28.357 35.229 24 46 24c1.111 0 2.271.068 3.443.201.271.037.522-.165.554-.44C50.028 23.487 49.831 23.239 49.557 23.208zM16.953 54.002c-.274.027-.476.271-.449.546.234 2.384.549 4.75.935 7.035C17.479 61.828 17.691 62 17.931 62c.028 0 .056-.002.084-.007.272-.046.456-.304.41-.577-.383-2.261-.693-4.604-.925-6.965C17.473 54.176 17.224 53.981 16.953 54.002z"/><path fill="#1f212b" d="M89,52h-1c-3.787,0-4.214-1.71-4.86-4.3c-0.376-1.508-0.789-3.164-2.021-4.422C84.187,41.979,90,38.758,90,33c0-3.199-1.061-5.357-1.105-5.447c-0.17-0.339-0.518-0.548-0.896-0.548c-0.003,0-0.007,0-0.011,0c-0.383,0.004-0.731,0.23-0.896,0.576c-0.067,0.143-1.735,3.521-8.188,4.818c-0.781,0.157-1.618,0.402-2.458,0.775C72.195,25.781,57.808,19,46,19c-10.783,0-21.62,3.231-28.07,10.16c-0.916-0.606-2.447-2.151-2.837-5.824c0.452,0.104,0.923,0.164,1.407,0.164c4.055,0,5.5-2.066,5.5-4c0-2.159-1.341-3.5-3.5-3.5c-1.671,0-4.5,1.158-4.5,5.5c0,0.131,0.001,0.262,0.004,0.39c-1.576-0.755-2.757-2.014-3.057-2.613c-0.124-0.247-0.424-0.346-0.671-0.224c-0.247,0.124-0.347,0.424-0.224,0.671c0.407,0.815,1.938,2.465,4.005,3.287c0.334,4.199,2.033,6.084,3.197,6.898C13.98,33.75,12,38.65,12,44.688c0,3.728,0.343,22.97,7.116,35.78C19.289,80.795,19.63,81,20,81h4c0.542,0,0.984-0.431,1-0.973c0.133-4.879,2.108-10.627,3.378-13.494c1.449,0.988,3.096,1.712,4.834,2.24c2.497,7.143,3.955,9.558,6.043,11.893C39.444,80.879,39.716,81,40,81h4c0.301,0,0.586-0.136,0.776-0.369c0.189-0.234,0.264-0.541,0.202-0.835c-0.492-2.355-0.868-7.199-0.958-9.796c3.687-0.096,6.82-0.578,8.3-0.848c1.457,4.275,4.142,8.634,5.477,10.799l0.35,0.57C58.328,80.818,58.651,81,59,81h4c0.315,0,0.612-0.149,0.802-0.402c0.188-0.253,0.246-0.58,0.157-0.883C63.949,79.683,63,76.446,63,73c0-2.661,0.474-4.907,0.752-5.946c0.748-0.01,1.513-0.037,2.288-0.078c0.197,3.816,1.526,8.281,3.986,13.308l0.075,0.153C70.269,80.782,70.618,81,71,81h3c0.284,0,0.556-0.121,0.745-0.333s0.28-0.495,0.249-0.777c-0.01-0.089-0.979-8.87-0.993-13.779c6.943-1.143,13.103-3.208,14.193-5.577c0.489-1.066,1.573-6.296,1.785-7.334c0.061-0.294-0.015-0.6-0.205-0.833C89.585,52.135,89.301,52,89,52z M15,21.5c0-3.321,1.886-4.5,3.5-4.5c1.612,0,2.5,0.888,2.5,2.5c0,1.878-1.683,3-4.5,3c-0.511,0-1.009-0.082-1.484-0.22C15.005,22.028,15,21.769,15,21.5z M40.452,79c-1.673-1.942-2.906-4.073-4.915-9.653c2.155,0.436,4.373,0.631,6.485,0.666c0.076,2.207,0.356,6.235,0.784,8.988H40.452z M72.888,79h-1.262c-2.224-4.633-3.421-8.71-3.591-12.156c1.318-0.107,2.649-0.253,3.969-0.432C72.042,70.434,72.63,76.51,72.888,79z M86.377,59.699c-0.929,2.02-12.228,5.36-23.353,5.36c-0.065,0-0.132,0.005-0.196,0.018C61.223,65.396,61,72.924,61,73c0,2.397,0.409,4.65,0.715,6H59.56l-0.061-0.098c-1.38-2.24-4.251-6.901-5.541-11.19c-0.15-0.499-0.659-0.801-1.169-0.689c-0.165,0.037-16.57,3.487-24.151-2.792c-0.232-0.193-0.545-0.272-0.836-0.21c-0.296,0.06-0.55,0.25-0.688,0.519c-1.154,2.219-3.66,8.731-4.064,14.461h-2.44C14.322,66.608,14,48.28,14,44.688C14,28.324,30.072,21,46,21c11.004,0,24.84,6.415,28.704,13.153c-1.972,1.375-3.755,3.656-4.629,7.414l-0.044,0.183c-0.138,0.535,0.185,1.081,0.719,1.218c0.535,0.137,1.08-0.184,1.219-0.718l0.055-0.229c1.003-4.313,3.45-6.891,7.275-7.661c4.524-0.91,7.052-2.807,8.367-4.217C87.846,30.899,88,31.875,88,33c0,6.167-9.195,9.014-9.288,9.042c-0.397,0.12-0.68,0.472-0.709,0.886s0.198,0.803,0.574,0.978c1.76,0.821,2.159,2.423,2.622,4.278c0.638,2.554,1.429,5.722,6.571,5.814C87.269,56.356,86.622,59.165,86.377,59.699z"/></svg>